<?xml version="1.0" encoding="UTF-8"?>
<svg id="Layer_1" data-name="Layer 1" xmlns="http://www.w3.org/2000/svg" viewBox="0 0 281 59.42">
  <path d="M17.64.94l12.46,35.86h.14L42.92.94h18v1.01h-6.62v49.25h6.62v1.01h-23.62v-1.01h6.55V1.95h-.14l-17.71,50.26h-1.15L7.06,1.95h-.14v49.25h6.62v1.01H-.86v-1.01h6.62V1.95H-.86V.94h18.51Z"/>
  <path d="M91.16,32.62c-2.23,0-4.46-.58-4.46-3.1.22-1.73.79-3.38,1.08-5.11,0-1.94-1.87-3.1-4.39-3.1-5.9,0-7.78,4.82-7.78,14.98s1.94,15.91,9,15.91c5.54,0,9.58-3.46,10.8-8.35l1.01.36c-1.8,6.12-6.26,9-12.67,9-7.13,0-17.86-3.89-17.86-16.42,0-8.06,7.06-16.49,17.71-16.49,7.2,0,12.24,3.17,12.24,7.99,0,3.17-1.73,4.32-4.68,4.32Z"/>
  <path d="M144.15.94h1.15v14.69h-.94c-3.24-10.58-8.14-14.83-15.7-14.83-5.76,0-9.22,1.8-11.67,5.18-2.38,3.38-3.6,8.71-3.6,20.88,0,18.07,3.31,25.42,15.19,25.42,7.7,0,13.75-6.12,15.99-15.34h1.15v15.27h-1.15c-.5-1.15-1.01-1.51-2.38-1.51-2.09,0-7.63,2.59-13.61,2.59-14.4,0-26.93-12.02-26.93-26.57C101.66,11.09,115.56-.21,128.59-.21c5.69,0,10.87,2.66,13.32,2.66,1.44,0,1.94-.29,2.23-1.51Z"/>
  <path d="M180.72,48.75c0,1.22.29,3.02,2.38,3.02,1.22,0,1.94-.5,2.74-1.37l.65.65c-1.01,1.37-2.3,2.16-6.41,2.16-4.82,0-7.13-1.87-7.7-4.97h-.14c-1.37,3.53-3.38,4.97-8.93,4.97-5.98,0-10.3-2.45-10.3-7.2,0-7.2,7.63-7.78,13.9-10.01,3.38-1.22,5.04-2.09,5.04-4.97v-4.82c0-2.81-1.37-4.9-4.46-4.9-2.23,0-4.1.94-4.1,3.46l.43,4.03c0,1.87-1.15,2.95-4.39,2.95s-4.18-1.44-4.18-3.67c0-4.75,5.62-7.78,12.39-7.78,9.79,0,13.1,4.03,13.1,10.01v18.43ZM171.79,34.35c-.22,1.08-1.87,1.73-4.97,3.17-3.1,1.44-4.61,3.74-4.61,7.2,0,4.68,1.58,6.84,4.68,6.84s5.04-3.1,5.04-7.42v-9.79h-.14Z"/>
  <path d="M203.54.29v50.91h4.82v1.01h-18.43v-1.01h4.82V1.3h-4.82V.29h13.61Z"/>
  <path d="M226.22.29v50.91h4.82v1.01h-18.43v-1.01h4.82V1.3h-4.82V.29h13.61Z"/>
  <path d="M240.91,21.39c4.68-3.24,7.7-5.69,7.7-9.14,0-1.44-.43-2.3-1.08-2.95-.86.58-1.94.72-3.02.72-2.66,0-4.97-2.02-4.97-5.11s2.38-5.11,5.47-5.11c3.67,0,6.62,3.1,6.62,8.57,0,5.18-2.66,9.43-10.23,13.97l-.5-.94Z"/>
  <path d="M276.05,21.17h1.01v8.78h-.94c-2.59-6.98-5.33-8.64-9.58-8.64-3.6,0-6.34,2.02-6.34,4.97,0,4.03,4.39,4.9,11.59,7.34,4.18,1.44,7.7,4.18,7.7,9.22,0,5.98-5.54,10.37-12.31,10.37-3.31,0-8.57-2.02-10.08-2.02-.79,0-1.01.22-1.3,1.01h-1.01v-10.44h1.01c3.17,8.35,6.41,10.44,11.09,10.44s6.41-2.23,6.41-5.76c0-4.54-7.34-5.62-12.02-7.71-3.31-1.44-6.05-3.82-6.05-8.14,0-5.76,4.97-10.3,11.81-10.3,3.31,0,6.7,1.8,7.63,1.8.86,0,1.08-.29,1.37-.94Z"/>
</svg>