<?xml version="1.0" encoding="UTF-8"?>
<svg xmlns="http://www.w3.org/2000/svg" viewBox="0 0 1024.1485 648.1119">
  <g style="isolation: isolate;">
    <g id="uuid-c5c6b670-edab-49d7-aa63-fd8c33c0e571" data-name="Layer 2">
      <g id="uuid-cfbecda0-1e2c-48fe-92dd-eec128b1e14c" data-name="—ÎÓÈ_1">
        <g>
          <g style="mix-blend-mode: multiply;">
            <path d="M1024.1485,36.9656v580.2775c0,17.0482-13.7952,30.8688-30.8125,30.8688H30.8126c-17.0173,0-30.8126-13.8206-30.8126-30.8688V36.9656C0,16.55,16.52,0,36.8983,0h950.3519c20.3783,0,36.8983,16.55,36.8983,36.9656Z" style="fill: #fff; opacity: 0;"/>
            <path d="M1022.9571,37.8449v578.5047c0,17.1253-13.8576,31.0083-30.9518,31.0083H32.1433c-17.0942,0-30.9519-13.8831-30.9519-31.0083V37.8449C1.1914,17.3601,17.7675.754,38.2149.754h947.7188c20.4474,0,37.0234,16.6061,37.0234,37.0909Z" style="fill: #fafafa; opacity: .0196;"/>
            <path d="M1021.7656,38.7243v576.7318c0,17.2023-13.9199,31.1479-31.091,31.1479H33.474c-17.1711,0-31.0911-13.9455-31.0911-31.1479V38.7243C2.3829,18.1702,19.0149,1.508,39.5314,1.508h945.0857c20.5165,0,37.1485,16.6622,37.1485,37.2163Z" style="fill: #f5f5f5; opacity: .0392;"/>
            <path d="M1020.5742,39.6036v574.959c0,17.2794-13.9823,31.2874-31.2303,31.2874H34.8048c-17.2481,0-31.2304-14.008-31.2304-31.2874V39.6036C3.5743,18.9803,20.2624,2.2619,40.848,2.2619h942.4526c20.5856,0,37.2736,16.7184,37.2736,37.3416Z" style="fill: #f0f0f0; opacity: .0588;"/>
            <path d="M1019.3827,40.4829v573.1862c0,17.3564-14.0446,31.4269-31.3696,31.4269H36.1355c-17.325,0-31.3697-14.0705-31.3697-31.4269V40.4829C4.7658,19.7904,21.5098,3.0159,42.1645,3.0159h939.8194c20.6547,0,37.3987,16.7745,37.3987,37.467Z" style="fill: #ebebeb; opacity: .0784;"/>
            <path d="M1018.1913,41.3622v571.4133c0,17.4335-14.107,31.5664-31.5089,31.5664H37.4662c-17.4019,0-31.509-14.1329-31.509-31.5664V41.3622C5.9572,20.6005,22.7573,3.7699,43.4811,3.7699h937.1863c20.7238,0,37.5239,16.8306,37.5239,37.5923Z" style="fill: #e6e6e6; opacity: .098;"/>
            <path d="M1016.9998,42.2416v569.6405c0,17.5106-14.1693,31.706-31.6481,31.706H38.7969c-17.4788,0-31.6482-14.1954-31.6482-31.706V42.2416C7.1487,21.4106,24.0048,4.5239,44.7977,4.5239h934.5532c20.7929,0,37.649,16.8867,37.649,37.7177Z" style="fill: #e1e1e1; opacity: .1176;"/>
            <path d="M1015.8084,43.1209v567.8677c0,17.5876-14.2317,31.8455-31.7874,31.8455H40.1276c-17.5557,0-31.7875-14.2579-31.7875-31.8455V43.1209C8.3401,22.2207,25.2522,5.2779,46.1142,5.2779h931.9201c20.862,0,37.7741,16.9428,37.7741,37.843Z" style="fill: #dcdcdc; opacity: .1373;"/>
            <path d="M1014.6169,44.0002v566.0948c0,17.6647-14.294,31.985-31.9267,31.985H41.4583c-17.6326,0-31.9268-14.3203-31.9268-31.985V44.0002C9.5316,23.0308,26.4997,6.0318,47.4308,6.0318h929.287c20.9311,0,37.8992,16.9989,37.8992,37.9684Z" style="fill: #d7d7d7; opacity: .1569;"/>
            <path d="M1013.4255,44.8795v564.322c0,17.7417-14.3564,32.1245-32.066,32.1245H42.7891c-17.7096,0-32.066-14.3828-32.066-32.1245V44.8795C10.723,23.8409,27.7471,6.7858,48.7473,6.7858h926.6538c21.0002,0,38.0243,17.0551,38.0243,38.0937Z" style="fill: #d2d2d2; opacity: .1765;"/>
            <path d="M1012.234,45.7589v562.5491c0,17.8188-14.4187,32.2641-32.2052,32.2641H44.1198c-17.7865,0-32.2053-14.4452-32.2053-32.2641V45.7589C11.9145,24.651,28.9946,7.5398,50.0639,7.5398h924.0207c21.0693,0,38.1494,17.1112,38.1494,38.2191Z" style="fill: #cdcdcd; opacity: .1961;"/>
            <path d="M1011.0426,46.6382v560.7763c0,17.8959-14.4811,32.4036-32.3445,32.4036H45.4505c-17.8634,0-32.3446-14.5077-32.3446-32.4036V46.6382c0-21.1771,17.1362-38.3444,38.2745-38.3444h921.3876c21.1384,0,38.2745,17.1673,38.2745,38.3444Z" style="fill: #c8c8c8; opacity: .2157;"/>
            <path d="M1009.8511,47.5175v559.0035c0,17.9729-14.5435,32.5431-32.4838,32.5431H46.7812c-17.9403,0-32.4839-14.5702-32.4839-32.5431V47.5175c0-21.2463,17.1922-38.4697,38.3996-38.4697h918.7545c21.2075,0,38.3996,17.2234,38.3996,38.4697Z" style="fill: #c3c3c3; opacity: .2353;"/>
            <path d="M1008.6597,48.3968v557.2306c0,18.05-14.6058,32.6826-32.623,32.6826H48.1119c-18.0172,0-32.6231-14.6326-32.6231-32.6826V48.3968c0-21.3156,17.2482-38.5951,38.5248-38.5951h916.1214c21.2766,0,38.5248,17.2795,38.5248,38.5951Z" style="fill: #bebebe; opacity: .2549;"/>
            <path d="M1007.4682,49.2762v555.4578c0,18.1271-14.6682,32.8222-32.7623,32.8222H49.4426c-18.0942,0-32.7624-14.6951-32.7624-32.8222V49.2762c0-21.3848,17.3042-38.7204,38.6499-38.7204h913.4883c21.3457,0,38.6499,17.3356,38.6499,38.7204Z" style="fill: #b9b9b9; opacity: .2745;"/>
            <path d="M1006.2768,50.1555v553.685c0,18.2041-14.7305,32.9617-32.9016,32.9617H50.7734c-18.1711,0-32.9017-14.7576-32.9017-32.9617V50.1555c0-21.454,17.3602-38.8458,38.775-38.8458h910.8551c21.4148,0,38.775,17.3918,38.775,38.8458Z" style="fill: #b4b4b4; opacity: .2941;"/>
            <path d="M1005.0854,51.0348v551.9121c0,18.2812-14.7929,33.1012-33.0409,33.1012H52.1041c-18.248,0-33.0409-14.82-33.0409-33.1012V51.0348c0-21.5232,17.4162-38.9711,38.9001-38.9711h908.222c21.4839,0,38.9001,17.4479,38.9001,38.9711Z" style="fill: #afafaf; opacity: .3137;"/>
            <path d="M1003.8939,51.9141v550.1393c0,18.3582-14.8552,33.2407-33.1801,33.2407H53.4348c-18.3249,0-33.1802-14.8825-33.1802-33.2407V51.9141c0-21.5925,17.4722-39.0965,39.0252-39.0965h905.5889c21.553,0,39.0252,17.504,39.0252,39.0965Z" style="fill: #aaa; opacity: .3333;"/>
            <path d="M1002.7025,52.7935v548.3665c0,18.4353-14.9176,33.3803-33.3194,33.3803H54.7655c-18.4018,0-33.3195-14.945-33.3195-33.3803V52.7935c0-21.6617,17.5282-39.2218,39.1503-39.2218h902.9558c21.6221,0,39.1503,17.5601,39.1503,39.2218Z" style="fill: #a5a5a5; opacity: .3529;"/>
            <path d="M1001.511,53.6728v546.5936c0,18.5124-14.9799,33.5198-33.4587,33.5198H56.0962c-18.4787,0-33.4587-15.0074-33.4587-33.5198V53.6728c0-21.7309,17.5843-39.3472,39.2754-39.3472h900.3227c21.6912,0,39.2754,17.6162,39.2754,39.3472Z" style="fill: #a0a0a0; opacity: .3725;"/>
            <path d="M1000.3196,54.5521v544.8208c0,18.5894-15.0423,33.6593-33.598,33.6593H57.427c-18.5557,0-33.598-15.0699-33.598-33.6593V54.5521c0-21.8001,17.6403-39.4725,39.4005-39.4725h897.6896c21.7603,0,39.4005,17.6724,39.4005,39.4725Z" style="fill: #9b9b9b; opacity: .3922;"/>
            <path d="M999.1281,55.4314v543.048c0,18.6665-15.1047,33.7988-33.7372,33.7988H58.7577c-18.6326,0-33.7373-15.1324-33.7373-33.7988V55.4314c0-21.8694,17.6963-39.5978,39.5256-39.5978h895.0564c21.8294,0,39.5256,17.7285,39.5256,39.5978Z" style="fill: #969696; opacity: .4118;"/>
            <path d="M997.9367,56.3108v541.2751c0,18.7435-15.167,33.9384-33.8765,33.9384H60.0884c-18.7095,0-33.8766-15.1948-33.8766-33.9384V56.3108c0-21.9386,17.7523-39.7232,39.6508-39.7232h892.4233c21.8985,0,39.6508,17.7846,39.6508,39.7232Z" style="fill: #919191; opacity: .4314;"/>
            <path d="M996.7452,57.1901v539.5023c0,18.8206-15.2294,34.0779-34.0158,34.0779H61.4191c-18.7864,0-34.0158-15.2573-34.0158-34.0779V57.1901c0-22.0078,17.8083-39.8485,39.7759-39.8485h889.7902c21.9676,0,39.7759,17.8407,39.7759,39.8485Z" style="fill: #8c8c8c; opacity: .451;"/>
            <path d="M995.5538,58.0694v537.7295c0,18.8977-15.2917,34.2174-34.155,34.2174H62.7498c-18.8633,0-34.1551-15.3198-34.1551-34.2174V58.0694c0-22.0771,17.8643-39.9739,39.901-39.9739h887.1571c22.0367,0,39.901,17.8968,39.901,39.9739Z" style="fill: #878787; opacity: .4706;"/>
            <path d="M994.3623,58.9487v535.9566c0,18.9747-15.3541,34.3569-34.2943,34.3569H64.0805c-18.9402,0-34.2944-15.3822-34.2944-34.3569V58.9487c0-22.1463,17.9203-40.0992,40.0261-40.0992h884.524c22.1058,0,40.0261,17.9529,40.0261,40.0992Z" style="fill: #828282; opacity: .4902;"/>
            <path d="M993.1709,59.8281v534.1838c0,19.0518-15.4164,34.4965-34.4336,34.4965H65.4113c-19.0172,0-34.4336-15.4447-34.4336-34.4965V59.8281c0-22.2155,17.9764-40.2246,40.1512-40.2246h881.8908c22.1748,0,40.1512,18.0091,40.1512,40.2246Z" style="fill: #7d7d7d; opacity: .5098;"/>
            <path d="M991.9794,60.7074v532.4109c0,19.1288-15.4788,34.636-34.5729,34.636H66.742c-19.0941,0-34.5729-15.5071-34.5729-34.636V60.7074c0-22.2847,18.0324-40.3499,40.2763-40.3499h879.2577c22.2439,0,40.2763,18.0652,40.2763,40.3499Z" style="fill: #787878; opacity: .5294;"/>
            <path d="M990.788,61.5867v530.6381c0,19.2059-15.5411,34.7755-34.7121,34.7755H68.0727c-19.171,0-34.7122-15.5696-34.7122-34.7755V61.5867c0-22.354,18.0884-40.4753,40.4014-40.4753h876.6246c22.313,0,40.4014,18.1213,40.4014,40.4753Z" style="fill: #737373; opacity: .549;"/>
            <path d="M989.5965,62.466v528.8653c0,19.283-15.6035,34.915-34.8514,34.915H69.4034c-19.2479,0-34.8514-15.6321-34.8514-34.915V62.466c0-22.4232,18.1444-40.6006,40.5265-40.6006h873.9915c22.3821,0,40.5265,18.1774,40.5265,40.6006Z" style="fill: #6e6e6e; opacity: .5686;"/>
            <path d="M988.4051,63.3454v527.0924c0,19.36-15.6658,35.0546-34.9907,35.0546H70.7341c-19.3248,0-34.9907-15.6945-34.9907-35.0546V63.3454c0-22.4924,18.2004-40.726,40.6517-40.726h871.3584c22.4512,0,40.6517,18.2335,40.6517,40.726Z" style="fill: #696969; opacity: .5882;"/>
            <path d="M987.2136,64.2247v525.3196c0,19.4371-15.7282,35.1941-35.1299,35.1941H72.0648c-19.4017,0-35.13-15.757-35.13-35.1941V64.2247c0-22.5617,18.2564-40.8513,40.7768-40.8513h868.7253c22.5203,0,40.7768,18.2896,40.7768,40.8513Z" style="fill: #646464; opacity: .6078;"/>
            <path d="M986.0222,65.104v523.5468c0,19.5141-15.7906,35.3336-35.2692,35.3336H73.3956c-19.4787,0-35.2693-15.8195-35.2693-35.3336V65.104c0-22.6309,18.3124-40.9766,40.9019-40.9766h866.0921c22.5894,0,40.9019,18.3458,40.9019,40.9766Z" style="fill: #5f5f5f; opacity: .6275;"/>
            <path d="M984.8308,65.9833v521.7739c0,19.5912-15.8529,35.4731-35.4085,35.4731H74.7263c-19.5556,0-35.4085-15.8819-35.4085-35.4731V65.9833c0-22.7001,18.3685-41.102,41.027-41.102h863.459c22.6585,0,41.027,18.4019,41.027,41.102Z" style="fill: #5a5a5a; opacity: .6471;"/>
            <path d="M983.6393,66.8627v520.0011c0,19.6683-15.9153,35.6127-35.5478,35.6127H76.057c-19.6325,0-35.5478-15.9444-35.5478-35.6127V66.8627c0-22.7693,18.4245-41.2273,41.1521-41.2273h860.8259c22.7276,0,41.1521,18.458,41.1521,41.2273Z" style="fill: #555; opacity: .6667;"/>
            <path d="M982.4479,67.742v518.2283c0,19.7453-15.9776,35.7522-35.687,35.7522H77.3877c-19.7094,0-35.6871-16.0069-35.6871-35.7522V67.742c0-22.8386,18.4805-41.3527,41.2772-41.3527h858.1928c22.7967,0,41.2772,18.5141,41.2772,41.3527Z" style="fill: #505050; opacity: .6863;"/>
            <path d="M981.2564,68.6213v516.4554c0,19.8224-16.04,35.8917-35.8263,35.8917H78.7184c-19.7863,0-35.8263-16.0693-35.8263-35.8917V68.6213c0-22.9078,18.5365-41.478,41.4023-41.478h855.5597c22.8658,0,41.4023,18.5702,41.4023,41.478Z" style="fill: #4b4b4b; opacity: .7059;"/>
            <path d="M980.065,69.5006v514.6826c0,19.8994-16.1023,36.0312-35.9656,36.0312H80.0492c-19.8633,0-35.9656-16.1318-35.9656-36.0312V69.5006c0-22.977,18.5925-41.6034,41.5274-41.6034h852.9266c22.9349,0,41.5274,18.6264,41.5274,41.6034Z" style="fill: #464646; opacity: .7255;"/>
            <path d="M978.8735,70.38v512.9098c0,19.9765-16.1647,36.1708-36.1049,36.1708H81.3799c-19.9402,0-36.1049-16.1943-36.1049-36.1708V70.38c0-23.0462,18.6485-41.7287,41.6525-41.7287h850.2934c23.004,0,41.6525,18.6825,41.6525,41.7287Z" style="fill: #414141; opacity: .7451;"/>
            <path d="M977.6821,71.2593v511.1369c0,20.0536-16.227,36.3103-36.2441,36.3103H82.7106c-20.0171,0-36.2442-16.2567-36.2442-36.3103V71.2593c0-23.1155,18.7045-41.8541,41.7777-41.8541h847.6603c23.0731,0,41.7777,18.7386,41.7777,41.8541Z" style="fill: #3c3c3c; opacity: .7647;"/>
            <path d="M976.4906,72.1386v509.3641c0,20.1306-16.2894,36.4498-36.3834,36.4498H84.0413c-20.094,0-36.3834-16.3192-36.3834-36.4498V72.1386c0-23.1847,18.7605-41.9794,41.9028-41.9794h845.0272c23.1422,0,41.9028,18.7947,41.9028,41.9794Z" style="fill: #373737; opacity: .7843;"/>
            <path d="M975.2992,73.0179v507.5913c0,20.2077-16.3518,36.5893-36.5227,36.5893H85.372c-20.1709,0-36.5227-16.3817-36.5227-36.5893V73.0179c0-23.2539,18.8166-42.1047,42.0279-42.1047h842.3941c23.2113,0,42.0279,18.8508,42.0279,42.1047Z" style="fill: #323232; opacity: .8039;"/>
            <path d="M974.1077,73.8973v505.8184c0,20.2848-16.4141,36.7289-36.6619,36.7289H86.7027c-20.2478,0-36.662-16.4441-36.662-36.7289V73.8973c0-23.3232,18.8726-42.2301,42.153-42.2301h839.761c23.2804,0,42.153,18.9069,42.153,42.2301Z" style="fill: #2d2d2d; opacity: .8235;"/>
            <path d="M972.9163,74.7766v504.0456c0,20.3618-16.4765,36.8684-36.8012,36.8684H88.0335c-20.3248,0-36.8012-16.5066-36.8012-36.8684V74.7766c0-23.3924,18.9286-42.3554,42.2781-42.3554h837.1278c23.3495,0,42.2781,18.9631,42.2781,42.3554Z" style="fill: #282828; opacity: .8431;"/>
            <path d="M971.7248,75.6559v502.2727c0,20.4389-16.5388,37.0079-36.9405,37.0079H89.3642c-20.4017,0-36.9405-16.569-36.9405-37.0079V75.6559c0-23.4616,18.9846-42.4808,42.4032-42.4808h834.4947c23.4186,0,42.4032,19.0192,42.4032,42.4808Z" style="fill: #232323; opacity: .8627;"/>
            <path d="M970.5334,76.5352v500.4999c0,20.5159-16.6012,37.1474-37.0798,37.1474H90.6949c-20.4786,0-37.0798-16.6315-37.0798-37.1474V76.5352c0-23.5308,19.0406-42.6061,42.5283-42.6061h831.8616c23.4877,0,42.5283,19.0753,42.5283,42.6061Z" style="fill: #1e1e1e; opacity: .8824;"/>
            <path d="M969.3419,77.4146v498.7271c0,20.593-16.6635,37.287-37.219,37.287H92.0256c-20.5555,0-37.219-16.694-37.219-37.287V77.4146c0-23.6001,19.0966-42.7315,42.6534-42.7315h829.2285c23.5568,0,42.6534,19.1314,42.6534,42.7315Z" style="fill: #191919; opacity: .902;"/>
            <path d="M968.1505,78.2939v496.9542c0,20.6701-16.7259,37.4265-37.3583,37.4265H93.3563c-20.6324,0-37.3583-16.7564-37.3583-37.4265V78.2939c0-23.6693,19.1526-42.8568,42.7786-42.8568h826.5954c23.6259,0,42.7786,19.1875,42.7786,42.8568Z" style="fill: #141414; opacity: .9216;"/>
            <path d="M966.959,79.1732v495.1814c0,20.7471-16.7882,37.566-37.4976,37.566H94.687c-20.7093,0-37.4976-16.8189-37.4976-37.566V79.1732c0-23.7385,19.2087-42.9822,42.9037-42.9822h823.9623c23.695,0,42.9037,19.2436,42.9037,42.9822Z" style="fill: #0f0f0f; opacity: .9412;"/>
            <path d="M965.7676,80.0525v493.4086c0,20.8242-16.8506,37.7055-37.6369,37.7055H96.0178c-20.7863,0-37.6369-16.8814-37.6369-37.7055V80.0525c0-23.8077,19.2647-43.1075,43.0288-43.1075h821.3291c23.7641,0,43.0288,19.2998,43.0288,43.1075Z" style="fill: #0a0a0a; opacity: .9608;"/>
            <path d="M964.5762,80.9319v491.6357c0,20.9012-16.9129,37.8451-37.7761,37.8451H97.3485c-20.8632,0-37.7761-16.9438-37.7761-37.8451V80.9319c0-23.877,19.3207-43.2329,43.1539-43.2329h818.696c23.8332,0,43.1539,19.3559,43.1539,43.2329Z" style="fill: #050505; opacity: .9804;"/>
            <path d="M963.3847,81.8112v489.8629c0,20.9783-16.9753,37.9846-37.9154,37.9846H98.6792c-20.9401,0-37.9154-17.0063-37.9154-37.9846V81.8112c0-23.9462,19.3767-43.3582,43.279-43.3582h816.0629c23.9023,0,43.279,19.412,43.279,43.3582Z"/>
          </g>
          <g>
            <path d="M986.0521,27.7776v581.1438c0,6.323-5.1487,11.4489-11.5,11.4489H27.9093c-6.3513,0-11.5-5.1259-11.5-11.4489V27.7776c0-9.491,7.7283-17.1851,17.2618-17.1851h935.1191c9.5335,0,17.2619,7.6941,17.2619,17.1851Z" style="fill: #2d2d2e;"/>
            <path d="M986.0521,27.7776v37.126H16.4093V27.7776c0-9.491,7.7283-17.1851,17.2618-17.1851h935.1191c9.5335,0,17.2619,7.6941,17.2619,17.1851Z" style="fill: #39393b;"/>
            <g>
              <path d="M97.7924,37.748c0,4.5355-3.6932,8.2122-8.2489,8.2122s-8.2487-3.6767-8.2487-8.2122,3.6931-8.2121,8.2487-8.2121,8.2489,3.6767,8.2489,8.2121Z" style="fill: #14cc5a;"/>
              <path d="M74.4207,37.748c0,4.5355-3.6931,8.2122-8.2489,8.2122s-8.2487-3.6767-8.2487-8.2122,3.6931-8.2121,8.2487-8.2121,8.2489,3.6767,8.2489,8.2121Z" style="fill: #ffbf00;"/>
              <path d="M51.049,37.748c0,4.5355-3.6931,8.2122-8.2489,8.2122s-8.2487-3.6767-8.2487-8.2122,3.6931-8.2121,8.2487-8.2121,8.2489,3.6767,8.2489,8.2121Z" style="fill: #e3343e;"/>
            </g>
            <g>
              <path d="M171.2246,38.4151l-7.5179,7.4845c-.1813.1865-.4291.2768-.6708.2768s-.4896-.0903-.6709-.2768c-.3746-.373-.3746-.9687,0-1.3417l6.8411-6.8106-6.8411-6.8107c-.3746-.373-.3746-.9687,0-1.3416.3687-.3671.973-.3671,1.3417,0l7.5179,7.4845c.3686.3669.3686.9686,0,1.3356Z" style="fill: #87898c;"/>
              <path d="M127.8604,38.4151l7.5179,7.4845c.1813.1865.4291.2768.6708.2768s.4895-.0903.6708-.2768c.3747-.373.3747-.9687,0-1.3417l-6.841-6.8106,6.841-6.8107c.3747-.373.3747-.9687,0-1.3416-.3686-.3671-.973-.3671-1.3416,0l-7.5179,7.4845c-.3686.3669-.3686.9686,0,1.3356Z" style="fill: #87898c;"/>
              <path d="M201.8785,46.1737c2.5146.0002,4.8792-1.1008,6.4989-3.025.3091-.3681.2601-.9163-.1097-1.2243-.3697-.3082-.9184-.2549-1.2298.1091-1.2848,1.5247-3.1631,2.4016-5.1594,2.402-1.7957,0-3.4838-.6962-4.7536-1.9604-1.2697-1.264-1.969-2.9446-1.969-4.7323,0-3.6905,3.0162-6.6923,6.7226-6.6928,1.6135.0002,3.141.5774,4.3471,1.5997l-1.0287,1.024,3.9784.6659-.7373-3.8925-.9767.9723c-1.5347-1.3455-3.5019-2.1076-5.5828-2.1076-2.3347,0-4.452.9456-5.9855,2.4723-1.5335,1.5266-2.483,3.6344-2.483,5.9587-.0002,2.2521.8808,4.3691,2.4801,5.9615,1.5997,1.5925,3.7262,2.4696,5.9884,2.4694Z" style="fill: #87898c;"/>
            </g>
            <rect x="235.7928" y="24.7036" width="649.2779" height="26.0889" rx="5.4318" ry="5.4318" style="fill: #636466;"/>
            <path d="M261.6439,44.484l-5.1342-5.1195c1.8197-2.3778,1.6491-5.7906-.5361-7.9581-2.3721-2.3697-6.239-2.3697-8.6111,0-2.3802,2.3616-2.3802,6.2112,0,8.5728,2.1771,2.1756,5.6053,2.3454,7.9937.5337l5.1422,5.1114c.3169.3235.8286.3235,1.1455,0,.3249-.3154.3249-.8249,0-1.1403ZM254.8281,38.8388c-1.7466,1.7307-4.5817,1.7307-6.3202,0-1.7384-1.7387-1.7384-4.5612,0-6.292,1.7385-1.7308,4.5736-1.7308,6.3202,0,1.7385,1.7308,1.7385,4.5533,0,6.292Z" style="fill: #87898c;"/>
            <g>
              <g>
                <path d="M928.4019,35.2544h-5.4629v1.0877h4.9166v8.0111h-12.0184v-8.0111h4.9167v-1.0877h-5.4629c-.3005,0-.5464.2448-.5464.5439v9.0988c0,.3046.2459.5438.5464.5438h13.1109c.3059,0,.5463-.2392.5463-.5438v-9.0988c0-.2991-.2404-.5439-.5463-.5439Z" style="fill: #87898c;"/>
                <path d="M924.4249,33.7044h-2.0322v5.4278c0,.2991-.2404.5438-.5463.5438-.3004,0-.5463-.2447-.5463-.5438v-5.4278h-2.0268l2.5731-3.6493,2.5785,3.6493Z" style="fill: #87898c;"/>
              </g>
              <g>
                <path d="M951.2019,34.8662h-9.6603c-.2644,0-.4808.2154-.4808.4787v9.6173c0,.2634.2164.4787.4808.4787h9.6603c.2693,0,.4809-.2153.4809-.4787v-9.6173c0-.2633-.2116-.4787-.4809-.4787ZM950.7211,44.4836h-8.6986v-8.66h8.6986v8.66Z" style="fill: #87898c;"/>
                <path d="M956.0345,30.0551h-9.6603c-.2693,0-.4809.2155-.4809.4787v3.8537h.9617v-3.375h8.6986v8.6599h-3.39v.9575h3.8709c.2645,0,.4808-.2106.4808-.4787v-9.6174c0-.2632-.2163-.4787-.4808-.4787Z" style="fill: #87898c;"/>
              </g>
            </g>
          </g>
        </g>
      </g>
    </g>
  </g>
</svg>